<svg width="40" height="40" viewBox="0 0 40 40" fill="none" xmlns="http://www.w3.org/2000/svg">
<path d="M28.6606 16.5076V25.89C28.6606 26.6874 28.0146 27.3334 27.2172 27.3334H12.7828C11.9854 27.3334 11.3394 26.6874 11.3394 25.89V16.5076C11.3394 15.7102 11.9854 15.0642 12.7828 15.0642H13.8654V16.1468H16.0305V15.0642H23.9694V16.1468H26.1346V15.0642H27.2172C28.0146 15.0642 28.6606 15.7102 28.6606 16.5076ZM23.2477 22.1474V20.2503H20.9485V17.9511H19.0514V20.2503H16.7522V22.1474H19.0514V24.4465H20.9485V22.1474H23.2477Z" fill="#54BAF7"/>
<path d="M25.7736 14.5695H24.3301C24.3301 14.169 24.0054 13.8477 23.6084 13.8477H16.3912C15.9943 13.8477 15.6695 14.169 15.6695 14.5695H14.2261C14.2261 13.3751 15.1968 12.4043 16.3912 12.4043H23.6084C24.8028 12.4043 25.7736 13.3751 25.7736 14.5695Z" fill="#1D83BF"/>
<circle cx="20" cy="20" r="19.5" stroke="#D8E9F5"/>
</svg>
