<svg width="40" height="40" viewBox="0 0 40 40" fill="none" xmlns="http://www.w3.org/2000/svg">
<circle cx="20" cy="20" r="19.5" stroke="#D8E9F5"/>
<path fill-rule="evenodd" clip-rule="evenodd" d="M19.6236 10.8494C19.8614 10.8494 20.0992 10.8494 20.337 10.8494C20.9457 11.0119 21.3737 11.3864 21.621 11.9729C22.0966 11.9848 22.5722 11.9967 23.0478 12.0086C23.2083 12.074 23.3212 12.1869 23.3866 12.3474C23.4104 13.251 23.4104 14.1546 23.3866 15.0582C23.3212 15.2187 23.2083 15.3317 23.0478 15.3971C21.0028 15.4209 18.9578 15.4209 16.9128 15.3971C16.7523 15.3317 16.6394 15.2187 16.574 15.0582C16.5502 14.1546 16.5502 13.251 16.574 12.3474C16.6394 12.1869 16.7523 12.074 16.9128 12.0086C17.3884 11.9967 17.864 11.9848 18.3396 11.9729C18.5869 11.3864 19.0149 11.0119 19.6236 10.8494Z" fill="#1D83BF"/>
<path fill-rule="evenodd" clip-rule="evenodd" d="M25.9729 29.1112C21.978 29.1112 17.9832 29.1112 13.9884 29.1112C13.549 28.9869 13.2696 28.7016 13.1502 28.2552C13.1264 23.4994 13.1264 18.7436 13.1502 13.9879C13.2631 13.5421 13.5425 13.2627 13.9884 13.1497C14.4638 13.1319 14.9394 13.1259 15.4151 13.1319C15.4017 13.8107 15.4196 14.4884 15.4686 15.165C15.6982 16.0128 16.2511 16.4706 17.1272 16.5382C19.0295 16.562 20.9318 16.562 22.8341 16.5382C23.7102 16.4706 24.263 16.0128 24.4926 15.165C24.5417 14.4884 24.5595 13.8107 24.5461 13.1319C25.0219 13.1259 25.4975 13.1319 25.9729 13.1497C26.4187 13.2627 26.6981 13.5421 26.8111 13.9879C26.8349 18.7436 26.8349 23.4994 26.8111 28.2552C26.6916 28.7016 26.4122 28.9869 25.9729 29.1112ZM19.2316 17.7331C19.8474 17.7244 20.0555 18.0097 19.8558 18.5891C19.0532 19.3916 18.2507 20.1942 17.4482 20.9967C17.2342 21.1156 17.0202 21.1156 16.8061 20.9967C16.3841 20.5746 15.962 20.1525 15.5399 19.7305C15.3536 19.3605 15.4428 19.0811 15.8074 18.8923C15.9836 18.8551 16.1501 18.8789 16.3068 18.9636C16.5683 19.2252 16.8299 19.4868 17.0915 19.7483C17.1153 19.7721 17.139 19.7721 17.1628 19.7483C17.8378 19.0554 18.5274 18.3837 19.2316 17.7331ZM21.6927 18.8388C22.5146 18.8228 23.335 18.8407 24.1538 18.8923C24.4524 19.0317 24.5653 19.2635 24.4926 19.5878C24.3999 19.8215 24.2275 19.9464 23.9755 19.9623C23.1536 19.9961 22.3332 19.9842 21.5144 19.9267C21.2158 19.7872 21.1028 19.5554 21.1755 19.2311C21.2761 19.0001 21.4485 18.8693 21.6927 18.8388ZM19.2316 22.2986C19.8474 22.2899 20.0555 22.5753 19.8558 23.1546C19.0532 23.9572 18.2507 24.7597 17.4482 25.5622C17.2342 25.6811 17.0202 25.6811 16.8061 25.5622C16.3841 25.1402 15.962 24.7181 15.5399 24.296C15.3536 23.9261 15.4428 23.6467 15.8074 23.4578C15.9836 23.4207 16.1501 23.4445 16.3068 23.5291C16.5683 23.7907 16.8299 24.0523 17.0915 24.3138C17.1153 24.3376 17.139 24.3376 17.1628 24.3138C17.8378 23.621 18.5274 22.9492 19.2316 22.2986ZM21.6927 23.4043C22.5146 23.3884 23.335 23.4062 24.1538 23.4578C24.4524 23.5972 24.5653 23.8291 24.4926 24.1533C24.3999 24.3871 24.2275 24.5119 23.9755 24.5279C23.1536 24.5616 22.3332 24.5498 21.5144 24.4922C21.2158 24.3528 21.1028 24.1209 21.1755 23.7967C21.2761 23.5656 21.4485 23.4348 21.6927 23.4043Z" fill="#54BAF7"/>
</svg>
