<svg width="34" height="27" viewBox="0 0 34 27" fill="none" xmlns="http://www.w3.org/2000/svg">
<path d="M12.501 25.4668H1.5332V18.2773C1.53325 16.4476 1.87482 14.5748 2.53418 12.666L2.53711 12.6572C3.21168 10.7421 4.12471 8.93694 5.27344 7.24414L5.27539 7.24023C6.44367 5.528 7.76485 4.0635 9.24414 2.86133L10.0752 2.1875L10.9707 2.77148L15.6572 5.8291L16.8916 6.63477L16.0811 7.86523C15.0366 9.44941 14.1599 11.1012 13.4531 12.8232L13.4541 12.8242C12.8091 14.4207 12.4838 16.2091 12.501 18.209V25.4668ZM26.6445 25.4668H15.6768V18.2773C15.6768 16.4476 16.0184 14.5747 16.6777 12.666L16.6807 12.6572C17.3552 10.7421 18.2683 8.93691 19.417 7.24414L19.4189 7.24023C20.5872 5.52795 21.9093 4.06353 23.3887 2.86133L24.2188 2.1875L25.1143 2.77148L29.8018 5.8291L31.0361 6.63477L30.2246 7.86523C29.1802 9.4494 28.3035 11.1013 27.5967 12.8232L27.5977 12.8242C26.9527 14.4206 26.6274 16.2092 26.6445 18.209V25.4668Z" fill="#0DA3FF" stroke="#DDEBF4" stroke-width="2.93333"/>
</svg>
