<svg width="40" height="40" viewBox="0 0 40 40" fill="none" xmlns="http://www.w3.org/2000/svg">
<path d="M19.3545 11.0429C17.3506 11.3593 15.8271 12.9374 15.5849 14.9413C15.3506 16.8749 16.5771 19.6991 18.1748 20.9023C19.3154 21.7616 20.4443 21.8163 21.5849 21.0741C23.0029 20.1523 24.2178 17.9413 24.417 15.9218C24.6396 13.6952 23.2529 11.7109 21.0654 11.1288C20.8271 11.0624 20.6201 11.0429 20.1162 11.0351C19.7607 11.0273 19.4209 11.0312 19.3545 11.0429Z" fill="#1D83BF"/>
<path d="M16.5031 20.9258C16.2335 20.9609 15.5617 21.1445 15.2531 21.2695C13.8546 21.8359 12.7296 23.0078 12.2296 24.4258C12.0109 25.0508 11.9367 25.4883 11.9406 26.2109C11.9406 26.7461 11.9523 26.9062 12.0226 27.1602C12.3039 28.1953 13.0031 28.707 14.4054 28.9141C14.8976 28.9883 25.1007 28.9883 25.5929 28.9141C26.9992 28.707 27.6945 28.1953 27.9757 27.1602C28.0968 26.7148 28.0968 25.7305 27.9757 25.168C27.7453 24.1055 27.2765 23.2188 26.546 22.4805C26.0031 21.9297 25.464 21.5664 24.7804 21.2852C24.4289 21.1406 23.7804 20.9648 23.4367 20.918L23.2609 20.8984L23.1906 21.0898C23.1554 21.1953 23.0499 21.3906 22.9601 21.5234C22.7414 21.8516 22.0109 22.6055 21.3898 23.1445C20.7882 23.6602 20.046 24.2578 19.9992 24.2578C19.9796 24.2578 19.7218 24.0625 19.4249 23.8242C17.9171 22.6055 17.007 21.6602 16.8078 21.0898C16.7648 20.9688 16.7179 20.9023 16.6789 20.9023C16.6476 20.9062 16.5695 20.918 16.5031 20.9258ZM24.546 24.2812C24.5578 24.3164 24.5695 24.543 24.5695 24.7891V25.2344H25.0148C25.2609 25.2344 25.4874 25.2461 25.5226 25.2578C25.6164 25.293 25.6164 26.3086 25.5226 26.3438C25.4874 26.3555 25.2609 26.3672 25.0148 26.3672H24.5695V26.8242C24.5695 27.0781 24.5539 27.3086 24.5382 27.3359C24.5109 27.3711 24.3742 27.3828 23.9796 27.375L23.4562 27.3633L23.4445 26.8633L23.4328 26.3672H22.9484C22.507 26.3672 22.4601 26.3594 22.421 26.293C22.4015 26.25 22.382 26.0273 22.382 25.8008C22.382 25.5742 22.4015 25.3516 22.421 25.3086C22.4601 25.2422 22.507 25.2344 22.9484 25.2344H23.4367V24.7539C23.4367 24.4883 23.4484 24.2578 23.464 24.2461C23.4757 24.2305 23.7218 24.2188 24.007 24.2188C24.4406 24.2188 24.5265 24.2266 24.546 24.2812Z" fill="#54BAF7"/>
<circle cx="20" cy="20" r="19.5" stroke="#D8E9F5"/>
</svg>
