<svg width="40" height="40" viewBox="0 0 40 40" fill="none" xmlns="http://www.w3.org/2000/svg">
<circle cx="20" cy="20" r="19.5" stroke="#D8E9F5"/>
<path d="M16.4106 11.3124C15.7505 11.4882 15.2349 12.0155 15.0591 12.6835C15.0122 12.8554 15.0005 13.1523 15.0005 13.953V14.9999H15.1685C15.731 14.9999 16.5864 15.2226 17.2075 15.5273C20.0161 16.9101 20.856 20.496 18.9614 23.0312L18.7544 23.3085L18.7427 25.9218C18.7349 27.8788 18.7192 28.5624 18.6841 28.6444L18.6333 28.7499H22.8638C27.5161 28.7499 27.3091 28.7616 27.7778 28.5116C28.0513 28.3632 28.3911 28.0194 28.5317 27.7421C28.7622 27.289 28.7505 27.5741 28.7505 21.6718V16.2499H27.0786C25.27 16.2499 25.1724 16.2421 24.7583 16.0312C24.481 15.8905 24.1372 15.5507 23.9888 15.2773C23.7583 14.8437 23.7505 14.7577 23.7505 12.9218V11.2499L20.188 11.2538C17.2036 11.2538 16.5864 11.2655 16.4106 11.3124ZM22.2114 15.1015C22.4185 15.2538 22.481 15.3788 22.481 15.6249C22.481 15.871 22.4185 15.996 22.2114 16.1483C22.1099 16.2265 22.0435 16.2304 21.0239 16.2421C20.3286 16.2499 19.8911 16.2382 19.7974 16.2148C19.4028 16.0976 19.2505 15.5546 19.52 15.2304C19.7114 15.0077 19.7544 14.9999 20.9849 15.0116C22.0474 15.0194 22.1099 15.0233 22.2114 15.1015ZM25.9614 18.2265C26.1685 18.3788 26.231 18.5038 26.231 18.7499C26.231 18.996 26.1685 19.121 25.9614 19.2734C25.856 19.3515 25.8052 19.3554 23.8364 19.3671C22.4888 19.3749 21.77 19.3671 21.6724 19.3359C21.2778 19.2226 21.1255 18.6796 21.395 18.3554C21.5942 18.121 21.5474 18.1249 23.7974 18.1366C25.8052 18.1444 25.856 18.1444 25.9614 18.2265ZM25.9614 21.3515C26.1685 21.5038 26.231 21.6288 26.231 21.8749C26.231 22.121 26.1685 22.246 25.9614 22.3984C25.856 22.4765 25.8052 22.4804 23.8364 22.4921C22.4888 22.4999 21.77 22.4921 21.6724 22.4609C21.2778 22.3476 21.1255 21.8046 21.395 21.4804C21.5942 21.246 21.5474 21.2499 23.7974 21.2616C25.8052 21.2694 25.856 21.2694 25.9614 21.3515ZM25.9614 24.4765C26.1685 24.6288 26.231 24.7538 26.231 24.9999C26.231 25.246 26.1685 25.371 25.9614 25.5234C25.856 25.6054 25.8091 25.6054 23.2114 25.6171C21.4263 25.6249 20.52 25.6171 20.4224 25.5859C20.0278 25.4726 19.8755 24.9296 20.145 24.6054C20.3442 24.3671 20.2427 24.3749 23.1724 24.3866C25.813 24.3944 25.856 24.3944 25.9614 24.4765Z" fill="#54BAF7"/>
<path d="M25.0005 13.0583C25.0005 14.1833 25.0122 14.5232 25.0552 14.6208C25.1216 14.7849 25.3208 14.9529 25.481 14.9802C25.5513 14.9919 26.2271 14.9958 26.9849 14.9919L28.3599 14.9802L26.6802 13.3005L25.0005 11.6208V13.0583Z" fill="#54BAF7"/>
<path d="M14.3482 16.3091C13.563 16.4497 12.8521 16.8325 12.3013 17.4145C10.899 18.8794 10.9068 21.1489 12.3208 22.6099C12.981 23.2974 13.856 23.688 14.8247 23.7388C16.6021 23.8286 18.1568 22.6724 18.6411 20.9028C18.7622 20.4731 18.7622 19.5278 18.6411 19.0981C18.2388 17.6255 17.0904 16.563 15.6372 16.3091C15.2388 16.2388 14.731 16.2388 14.3482 16.3091Z" fill="#1D83BF"/>
<path d="M12.5005 26.2891C12.5005 28.4609 12.4966 28.418 12.7544 28.6133C12.9028 28.7305 13.0747 28.7695 13.27 28.7305C13.395 28.707 13.5356 28.5898 14.2114 27.918L15.0005 27.1328L15.7935 27.918C16.4653 28.5898 16.606 28.707 16.731 28.7305C16.9263 28.7695 17.0981 28.7305 17.2466 28.6133C17.5044 28.418 17.5005 28.457 17.5005 26.2969V24.3398L17.1294 24.5156C16.4106 24.8516 15.8325 24.9766 15.0005 24.9766C14.0708 24.9805 13.4614 24.8203 12.5317 24.3438C12.5122 24.3359 12.5005 25.2109 12.5005 26.2891Z" fill="#1D83BF"/>
</svg>
